<svg id="Layer_1" data-name="Layer 1" xmlns="http://www.w3.org/2000/svg" viewBox="0 0 291.83 226.56"><defs><style>.cls-1{fill:#d7c300;}.cls-2{fill:#515151;}.cls-3{fill:#846203;}.cls-4{fill:none;stroke:#bfbfbf;stroke-miterlimit:10;stroke-width:0.6px;}.cls-5{fill:#ccc;}.cls-6{fill:#794400;}.cls-7{fill:#cdb22f;}.cls-8{fill:#ccb656;}.cls-9{fill:#774d1e;}</style></defs><title>empty state 1</title><path class="cls-1" d="M541.33,217.45c6.54-9.49,12.33-8.26,17.88-4.44s8.77,8.79,2.23,18.29-25.9,16.1-25.9,16.1S534.79,226.94,541.33,217.45Z" transform="translate(-273.24 -189.03)"/><path class="cls-2" d="M540.49,240.19c7.66-10.73,15.35-21.44,23.16-32.45a.89.89,0,0,1-1.11-.76C555,218.2,547.78,229.21,540.49,240.19Z" transform="translate(-273.24 -189.03)"/><path class="cls-2" d="M554.67,233.25c.13-4.44.28-8.89.41-13.43a.43.43,0,0,1-.56,0C554.55,224.36,554.62,228.81,554.67,233.25Z" transform="translate(-273.24 -189.03)"/><path class="cls-2" d="M541.88,224.45c4.1-1.71,8.2-3.44,12.4-5.17a.43.43,0,0,0,.2.52C550.22,221.38,546,222.91,541.88,224.45Z" transform="translate(-273.24 -189.03)"/><path class="cls-1" d="M373.9,301.11c6.11-9.78,11.94-8.81,17.66-5.24s9.15,8.39,3,18.17-25.16,17.24-25.16,17.24S367.8,310.89,373.9,301.11Z" transform="translate(-273.24 -189.03)"/><path class="cls-3" d="M374.08,323.87c7.17-11.07,14.38-22.11,21.69-33.45a.89.89,0,0,1-1.14-.71C387.64,301.25,380.88,312.57,374.08,323.87Z" transform="translate(-273.24 -189.03)"/><path class="cls-3" d="M387.93,316.31c-.07-4.44-.11-8.89-.19-13.44a.43.43,0,0,1-.56,0C387.42,307.43,387.69,311.87,387.93,316.31Z" transform="translate(-273.24 -189.03)"/><path class="cls-3" d="M374.76,308.08c4-1.89,8-3.8,12.16-5.72a.43.43,0,0,0,.23.51C383,304.65,378.86,306.36,374.76,308.08Z" transform="translate(-273.24 -189.03)"/><path class="cls-1" d="M310.89,200.84c5.91-9.9,11.77-9,17.55-5.58s9.31,8.21,3.4,18.1S307,231.09,307,231.09,305,210.74,310.89,200.84Z" transform="translate(-273.24 -189.03)"/><path class="cls-3" d="M311.52,223.59c7-11.2,13.94-22.39,21-33.87a.89.89,0,0,1-1.16-.69C324.63,200.71,318.09,212.16,311.52,223.59Z" transform="translate(-273.24 -189.03)"/><path class="cls-3" d="M325.22,215.76c-.15-4.44-.29-8.89-.46-13.43a.43.43,0,0,1-.56,0C324.53,206.89,324.89,211.32,325.22,215.76Z" transform="translate(-273.24 -189.03)"/><path class="cls-3" d="M311.89,207.79c4-2,8-4,12-6a.43.43,0,0,0,.24.5C320,204.2,316,206,311.89,207.79Z" transform="translate(-273.24 -189.03)"/><path class="cls-1" d="M288.71,274.69c9.33-6.76,14.38-3.67,18.33,1.79s5.32,11.21-4,18S273.24,301,273.24,301,279.37,281.46,288.71,274.69Z" transform="translate(-273.24 -189.03)"/><path class="cls-3" d="M280.32,295.85c10.8-7.56,21.63-15.08,32.67-22.84a.89.89,0,0,1-.79-1.09C301.38,280,290.86,287.93,280.32,295.85Z" transform="translate(-273.24 -189.03)"/><path class="cls-3" d="M296,294c1.61-4.14,3.24-8.28,4.87-12.52a.43.43,0,0,1-.52-.19C298.86,285.63,297.44,289.84,296,294Z" transform="translate(-273.24 -189.03)"/><path class="cls-3" d="M286.89,281.47c4.44-.24,8.88-.5,13.42-.73a.43.43,0,0,0,0,.56C295.78,281.37,291.33,281.41,286.89,281.47Z" transform="translate(-273.24 -189.03)"/><path class="cls-4" d="M407.73,253.23s-12.89,21.08-38.48,26.32" transform="translate(-273.24 -189.03)"/><path class="cls-4" d="M395.77,255.17s-28,28.29-75-7.7" transform="translate(-273.24 -189.03)"/><path class="cls-4" d="M393.37,240.34s-18.56,3.63-21.45-13a13.41,13.41,0,0,1,4-12.4c9.68-8.58,22.08,7.24,15.81,14.11-7.28,8-18-.73-12.4-8.41" transform="translate(-273.24 -189.03)"/><path class="cls-4" d="M557.66,282.94s.26,26-12.29,40.91" transform="translate(-273.24 -189.03)"/><path class="cls-4" d="M550,295.78s-6,42.88-49.65,55.26" transform="translate(-273.24 -189.03)"/><ellipse class="cls-5" cx="163.68" cy="221.46" rx="108.67" ry="5.1"/><path class="cls-6" d="M460.73,375.36l1.6-2.82a19,19,0,0,0,19.78-1.82l3.31,5A23.61,23.61,0,0,1,460.73,375.36Z" transform="translate(-273.24 -189.03)"/><ellipse class="cls-7" cx="410.27" cy="377.51" rx="49.51" ry="33.67" transform="translate(-285.22 -175.58) rotate(-1.85)"/><ellipse class="cls-7" cx="367.06" cy="378.91" rx="11.71" ry="1.7" transform="matrix(1, -0.03, 0.03, 1, -285.29, -176.97)"/><path class="cls-6" d="M436.63,412.43c-11.83.38-12.27-15.94-12.92-36.07s-1.27-36.44,10.56-36.83,31.63,15.31,32.28,35.44S448.46,412,436.63,412.43Z" transform="translate(-273.24 -189.03)"/><ellipse class="cls-8" cx="125.68" cy="172.31" rx="18.91" ry="9.31"/><path class="cls-9" d="M451,363.73c0,8.46-8.48,15.31-14,15.31s-6-6.86-6-15.31.48-15.31,6-15.31S451,355.27,451,363.73Z" transform="translate(-273.24 -189.03)"/></svg>